<svg width="79" height="72" viewBox="0 0 79 72" fill="none" xmlns="http://www.w3.org/2000/svg">
<g id="LOGO">
<path id="Vector" d="M7.99308 66.4579C7.96914 66.3921 7.91105 66.2334 7.81924 65.9813C7.727 65.7296 7.6229 65.4633 7.50589 65.1831C7.38868 64.9033 7.28708 64.6422 7.19901 64.4011C7.11094 64.1606 7.05452 64.0068 7.03057 63.9408C6.82258 63.3716 6.63021 62.8088 6.45636 62.2521C6.28168 61.6958 6.09493 61.1429 5.89526 60.5949C5.68727 60.0257 5.46783 59.466 5.23756 58.9168C5.00688 58.3678 4.78723 57.8088 4.57861 57.2388C4.29026 56.4503 4.0171 55.6627 3.7606 54.8751C3.50389 54.088 3.23677 53.3105 2.95695 52.5433C2.65298 51.7114 2.32319 50.7639 1.96925 49.7021C1.61448 48.6403 1.28719 47.6924 0.983841 46.8596C0.700899 46.0814 0.417124 45.3032 0.134389 44.5255C0.140635 44.4489 0.105656 44.2824 0.03008 44.0244C-0.0465373 43.7677 0.0232105 43.6005 0.239321 43.525C1.14999 43.2578 2.01797 42.9728 2.84473 42.6687C3.67128 42.3643 4.53739 42.0759 5.44285 41.8055C5.78596 41.7026 6.13011 41.6017 6.47406 41.5021C6.63687 41.4794 6.9398 41.3855 7.38472 41.2244C7.82881 41.0633 8.13695 40.9856 8.30684 40.9873C8.382 41.0154 8.44675 41.0945 8.50005 41.2244C8.55355 41.3547 8.58937 41.4538 8.60852 41.5213C8.62143 41.6866 8.63371 41.8521 8.64683 42.0178C8.58416 42.0347 8.42405 42.0905 8.16693 42.1858C7.90918 42.281 7.70285 42.3512 7.54816 42.3949C7.47029 42.4169 7.39305 42.4388 7.3156 42.4611C6.6529 42.7222 5.98104 42.9503 5.2994 43.1448C4.61692 43.3401 3.94735 43.5803 3.29444 43.8645C3.12517 43.9688 3.08207 44.0935 3.16452 44.2376C3.24697 44.3829 3.29569 44.4772 3.31068 44.5214C3.29506 44.5757 3.30984 44.6688 3.3544 44.8014C3.39895 44.9338 3.42498 45.0121 3.43227 45.0333C3.71417 45.7755 4.04167 46.6252 4.41205 47.5835C4.78202 48.542 5.08807 49.3859 5.33167 50.1158C5.35394 50.1824 5.38164 50.2901 5.41537 50.4381C5.44889 50.5871 5.47012 50.6723 5.47699 50.694C5.46638 50.7585 5.45617 50.823 5.44618 50.8876C5.78554 51.8068 6.09826 52.7411 6.38537 53.6895C6.67247 54.6386 6.97249 55.5765 7.28458 56.5049C8.65973 56.0575 10.0418 55.6388 11.43 55.2486C11.4846 55.2328 11.5762 55.2141 11.703 55.1901C11.8302 55.1674 11.9239 55.1597 11.9855 55.1666C12.0197 55.3384 12.0538 55.5101 12.0882 55.6821C12.1458 55.8838 12.2031 56.0858 12.2608 56.2875C12.1512 56.3175 11.9863 56.3812 11.7654 56.4799C11.5445 56.5782 11.4005 56.6136 11.333 56.5842C11.1433 56.6388 10.9535 56.6931 10.7638 56.7487C10.2758 56.8911 9.743 57.0566 9.16649 57.2469C8.58916 57.438 8.05929 57.6131 7.57564 57.7707C7.80716 58.5904 8.03972 59.41 8.27353 60.2287C8.44695 60.6132 8.62059 60.9984 8.79361 61.3833C9.28558 62.9273 9.7786 64.4713 10.2731 66.0138C10.5165 66.5728 10.7465 67.1351 10.9645 67.7012C11.1819 68.2683 11.4111 68.8311 11.6516 69.3905C11.6994 69.534 11.7477 69.6776 11.7961 69.8217C11.8406 69.9543 11.885 70.0865 11.9293 70.2195C13.1379 69.8269 14.3519 69.46 15.572 69.1186C15.7908 69.033 16.0096 68.9489 16.2286 68.8648C16.2355 68.8877 16.2765 68.9912 16.354 69.175C16.431 69.3599 16.4728 69.463 16.4789 69.4852C16.4379 69.5208 16.4503 69.6083 16.5143 69.7471C16.5788 69.8873 16.5903 69.9745 16.5497 70.0095C16.5565 70.0322 16.4347 70.0709 16.1855 70.1271C15.9367 70.1842 15.8158 70.2245 15.8218 70.2466C15.5563 70.333 15.2911 70.4211 15.0261 70.5104C13.5805 70.9305 12.1421 71.3873 10.7138 71.8803C10.5519 71.9359 10.3882 71.8582 10.2204 71.6444C10.052 71.4321 9.88062 71.1402 9.70635 70.7683C9.53147 70.3975 9.35429 69.9839 9.17461 69.5279C8.99431 69.0718 8.82942 68.636 8.67722 68.2198C8.52544 67.8036 8.39137 67.4366 8.27561 67.1187C8.16026 66.801 8.06533 66.5809 7.99308 66.4579Z" fill="#F4F1E9"/>
<path id="Vector_2" d="M17.801 69.4984C17.765 69.3633 17.6971 69.1765 17.5957 68.9377C17.4941 68.6989 17.4263 68.5122 17.3898 68.3766C17.354 68.2415 17.3284 68.122 17.3138 68.0177C17.2984 67.9134 17.2943 67.7762 17.3009 67.6057C17.1997 67.2228 17.0979 66.84 16.9972 66.4567C16.8364 65.8485 16.657 65.1975 16.4604 64.5017C16.2626 63.807 16.0563 63.1022 15.84 62.3875C15.6232 61.6734 15.415 60.9693 15.2164 60.2743C15.0174 59.5798 14.8375 58.9277 14.6759 58.3198L14.4513 57.4753C14.4657 57.4237 14.4709 57.3621 14.4667 57.2913C14.4619 57.2203 14.4567 57.1732 14.4509 57.1508C14.3522 56.6709 14.2606 56.2432 14.1765 55.8685C14.0913 55.4933 14.0022 55.1254 13.9064 54.7646C13.8115 54.4045 13.7132 54.0326 13.6114 53.6493C13.5102 53.2669 13.4003 52.8499 13.281 52.3991C13.2691 52.3544 13.246 52.2403 13.2131 52.056C13.1798 51.8724 13.143 51.6771 13.1042 51.4706C13.0645 51.2643 13.0299 51.0744 12.9999 50.9018C12.9697 50.7292 12.9491 50.6207 12.9373 50.5749L12.6348 49.4259C12.0185 47.1422 11.4014 44.8587 10.7837 42.5754C10.6375 42.3964 10.5238 42.1551 10.4435 41.8507C10.3627 41.5463 10.2956 41.293 10.2421 41.0906C10.1582 40.7752 10.1651 40.5811 10.264 40.5076C10.3623 40.4346 10.6131 40.3346 11.0173 40.2097C11.0805 40.1943 11.2352 40.1446 11.4822 40.0592C11.7291 39.9759 11.8842 39.9264 11.9479 39.911L11.9952 39.8999C12.2477 39.8391 12.4919 39.8781 12.7251 40.0148C12.9508 40.536 13.129 41.1108 13.2631 41.7372C13.3959 42.3641 13.5156 42.9945 13.6191 43.6277C13.7234 44.2618 13.8354 44.8933 13.9562 45.5229C14.0763 46.1531 14.2029 46.7393 14.3343 47.2829C14.6441 48.5623 14.9541 49.8417 15.2637 51.121C15.2803 51.1891 15.3351 51.3552 15.4296 51.6207C15.5233 51.8861 15.5787 52.0523 15.5953 52.1201C15.5752 52.1607 15.5552 52.2013 15.5352 52.2419C16.171 54.8687 16.8069 57.4955 17.4431 60.1227C17.5859 60.7115 17.7542 61.4377 17.9505 62.3007C18.1458 63.1647 18.3153 63.8902 18.4585 64.4788C18.6063 65.0903 18.7435 65.7107 18.8705 66.3384C18.9975 66.9674 19.136 67.5865 19.2846 68.198C19.3508 68.4693 19.4173 68.741 19.4828 69.0129C19.4674 69.0522 19.452 69.092 19.4372 69.1311C19.2009 69.1872 18.9651 69.244 18.7287 69.3017C18.7271 69.4944 18.6521 69.5906 18.5022 69.5919C18.3525 69.5927 18.213 69.5863 18.084 69.5707C17.9894 69.5463 17.8953 69.5223 17.801 69.4984Z" fill="#F4F1E9"/>
<path id="Vector_3" d="M28.2096 67.7846C28.0643 67.6168 27.977 67.3936 27.9502 67.115C27.9225 66.8369 27.855 66.5762 27.7455 66.3326C27.7289 66.2177 27.6951 65.94 27.6452 65.5003C27.5948 65.0606 27.5346 64.5986 27.4657 64.1143C27.3964 63.6301 27.337 63.1747 27.2892 62.7461C27.2404 62.3184 27.2084 62.0465 27.1921 61.9308C26.778 59.2142 26.3947 56.5406 26.0479 53.9084C25.7 51.277 25.2821 48.5259 24.7791 45.6568C24.7726 45.6106 24.7599 45.5244 24.7418 45.3974C24.7239 45.2708 24.7046 45.138 24.685 44.9995C24.6652 44.8611 24.64 44.6883 24.6107 44.4811C24.5769 44.4622 24.5311 44.2513 24.4731 43.8474C24.415 43.4447 24.3502 42.9952 24.279 42.4991C24.2082 42.0038 24.1393 41.5256 24.0725 41.0646C24.0063 40.6039 23.9648 40.316 23.9482 40.2002C23.9353 40.1084 23.9138 39.9112 23.887 39.6091C23.8601 39.3075 23.8251 39.1243 23.7839 39.0593C23.6886 39.0724 23.5938 39.0857 23.4985 39.0995C23.2767 39.1307 23.0344 39.1367 22.7725 39.1161C22.5097 39.0966 22.287 39.1242 22.1042 39.199C22.0725 39.204 22.035 39.2221 21.9909 39.2519C21.9474 39.2827 21.9095 39.2998 21.8781 39.305C21.593 39.3493 21.3084 39.3943 21.0238 39.4407C21.0076 39.4434 20.9917 39.4459 20.9759 39.4484C20.7786 39.4338 20.628 39.3643 20.5256 39.2394C20.4221 39.1149 20.3592 38.9837 20.3355 38.8461C20.3116 38.7085 20.3313 38.5871 20.3955 38.4822C20.459 38.3775 20.5612 38.3483 20.7005 38.3962C20.9357 38.2398 21.1987 38.1382 21.4868 38.0933C21.7744 38.0481 22.0942 37.999 22.4466 37.9459C22.7987 37.8938 23.2091 37.8463 23.6773 37.8045C24.1443 37.7635 24.5551 37.7208 24.908 37.6754C25.4208 37.6096 25.9954 37.5211 26.6344 37.4131C27.2729 37.3055 27.8659 37.2251 28.4132 37.1708C28.7867 37.1687 29.1602 37.1687 29.5338 37.1699C29.5658 37.5176 29.5983 37.8655 29.6308 38.2134C28.6154 38.3629 27.6031 38.5257 26.5929 38.701C26.5719 38.7976 26.5677 38.8919 26.579 38.9843C26.558 39.0805 26.5528 39.169 26.5627 39.2496C26.5721 39.3308 26.5798 39.3941 26.5854 39.4403C26.6148 39.9531 26.676 40.526 26.7682 41.1594C26.8603 41.7939 26.9525 42.4337 27.0462 43.0789C27.1388 43.7245 27.239 44.3633 27.3447 44.9954C27.4503 45.6279 27.5338 46.1987 27.5944 46.7067C27.5994 46.7531 27.6033 46.8464 27.605 46.9869C27.6062 47.1271 27.6173 47.2788 27.6366 47.4404C27.6562 47.6024 27.666 47.7531 27.6687 47.8932C27.6702 48.0338 27.6743 48.1274 27.6799 48.173C27.6829 48.1966 27.6912 48.2663 27.7051 48.3812C27.7189 48.4974 27.727 48.625 27.7291 48.7654C27.7303 48.9055 27.7403 49.0395 27.7551 49.1665C27.7705 49.294 27.7795 49.3691 27.782 49.3916C27.7851 49.4151 27.7928 49.4788 27.8051 49.5827C27.8174 49.6866 27.8226 49.7917 27.8209 49.8973C27.8188 50.0033 27.8167 50.1032 27.8136 50.1971C27.8099 50.291 27.8103 50.3501 27.8132 50.3728C27.8471 50.4159 27.8794 50.5057 27.9106 50.6429C27.9414 50.7801 27.9743 50.8698 28.0081 50.9129C28.1755 52.4285 28.3431 53.9442 28.5119 55.4605C28.4332 55.7276 28.453 56.0536 28.5679 56.4382C28.6824 56.8235 28.7384 57.1215 28.7366 57.3326C29.1251 60.335 29.5104 63.3371 29.8933 66.3399C29.9314 66.4532 29.9651 66.6306 29.9937 66.8733C30.0228 67.1165 30.0436 67.2955 30.0578 67.4109C30.0557 67.5985 29.9164 67.7024 29.6408 67.7236C29.3645 67.7457 28.8877 67.7627 28.2096 67.7846Z" fill="#F4F1E9"/>
<path id="Vector_4" d="M31.6187 60.5104C31.5069 60.4275 31.4705 60.3257 31.5121 60.2044C31.4728 60.0682 31.418 59.8334 31.3466 59.5009C31.2752 59.1688 31.1944 58.8138 31.1049 58.436C31.0143 58.0587 30.9331 57.7039 30.8601 57.3719C30.787 57.04 30.7435 56.8041 30.7293 56.665C30.666 56.028 30.6027 55.3907 30.5394 54.7536L30.4468 54.657C30.554 54.6237 30.6031 54.5544 30.5925 54.4503C30.5823 54.346 30.5738 54.2593 30.5669 54.1896C30.5782 54.0249 30.5784 53.7443 30.5684 53.3479C30.5571 52.9513 30.5525 52.5367 30.5534 52.1039C30.5542 51.6715 30.5573 51.2565 30.5619 50.8579C30.5675 50.4604 30.5623 50.1802 30.5469 50.0178C30.6593 49.6805 30.706 49.3195 30.6854 48.9358C30.6643 48.5515 30.6829 48.1938 30.741 47.8615C30.843 47.3614 30.9546 46.8676 31.0768 46.3777C31.1982 45.8889 31.3606 45.4027 31.5631 44.9193C31.6643 44.678 31.8473 44.4125 32.1153 44.1244C32.3828 43.8365 32.6841 43.5646 33.0191 43.3091C33.3537 43.0549 33.7011 42.8353 34.0601 42.652C34.4186 42.469 34.7528 42.3704 35.0601 42.3558C35.4904 42.3358 35.8668 42.3148 36.1895 42.2908C36.5123 42.2673 36.8452 42.3202 37.1868 42.4501C37.8089 42.7116 38.2826 43.0058 38.608 43.3258C38.9332 43.6466 39.1801 44.0049 39.3508 44.3984C39.5203 44.7927 39.629 45.2162 39.6777 45.67C39.7264 46.1235 39.7816 46.6063 39.8434 47.1178C39.8451 47.3273 39.8541 47.6939 39.8726 48.2177C39.8901 48.7411 39.9011 49.2995 39.9051 49.8937C39.908 50.4873 39.9182 51.0402 39.9359 51.552C39.953 52.0643 39.9619 52.4247 39.9634 52.6344C39.9944 53.2394 40.0389 53.8382 40.097 54.4317C40.1543 55.0253 40.1836 55.6247 40.1859 56.2299C40.1868 56.3692 40.1803 56.5909 40.1684 56.893C40.1559 57.1959 40.1505 57.3708 40.1505 57.4168C40.151 57.5565 40.1522 57.807 40.1537 58.1676C40.1553 58.5286 40.1493 58.9129 40.1387 59.3202C40.1268 59.7278 40.1156 60.118 40.1045 60.4902C40.0933 60.8629 40.0883 61.1187 40.0891 61.2584C40.04 61.7473 39.9665 62.2484 39.8699 62.7608C39.7724 63.274 39.6263 63.7578 39.4341 64.2142C39.2405 64.6706 38.9888 65.0932 38.679 65.4834C38.3688 65.8739 37.9761 66.2039 37.5016 66.4756C37.4065 66.5256 37.2393 66.6064 37.0026 66.7205C36.7654 66.8345 36.6128 66.917 36.5429 66.9665C36.5193 66.9909 36.4723 67.0046 36.4002 67.0076C36.3515 67.0101 36.3045 67.0242 36.2574 67.049C36.2087 67.0515 36.1237 67.0209 35.9997 66.9568C35.8754 66.893 35.789 66.8512 35.7394 66.8302C35.4933 66.7504 35.2835 66.6803 35.11 66.6209C34.937 66.5612 34.7802 66.4894 34.6412 66.4046C34.5019 66.3203 34.3605 66.2191 34.2185 66.1002C34.0759 65.982 33.91 65.8127 33.7215 65.5927C33.4771 65.2841 33.2843 64.9602 33.1446 64.621C33.0053 64.2817 32.8221 63.9581 32.5941 63.6498C32.2764 62.6021 31.9516 61.5555 31.6187 60.5104ZM34.1473 57.4441C34.1502 57.4905 34.1648 57.6125 34.191 57.8089C34.2166 58.0054 34.2445 58.2196 34.2727 58.4507C34.3003 58.6822 34.3287 58.914 34.357 59.1453C34.3847 59.3772 34.4026 59.5513 34.4099 59.667C34.4134 59.7141 34.4313 59.7942 34.4646 59.9083C34.4979 60.0232 34.5164 60.1036 34.5189 60.1502C34.7045 61.0255 34.8698 61.8493 35.0172 62.6215C35.1642 63.3945 35.4121 64.1907 35.7513 65.012C35.7769 65.0347 35.7906 65.0572 35.7919 65.0803C35.7944 65.1269 35.8077 65.1492 35.8325 65.1477C36.0257 65.3133 36.2179 65.4786 36.409 65.6447C36.4342 65.6674 36.4841 65.6764 36.5572 65.6734C36.6305 65.6699 36.6786 65.6682 36.7034 65.6674C36.9961 65.6551 37.2524 65.5008 37.476 65.2017C37.6992 64.9033 37.8918 64.5486 38.0546 64.1367C38.217 63.7251 38.3446 63.3146 38.4362 62.9047C38.5276 62.4958 38.5851 62.1855 38.6059 61.9757C38.628 61.8356 38.6498 61.6488 38.6709 61.4154C38.6913 61.1829 38.7127 60.9432 38.7335 60.6984C38.7546 60.4536 38.77 60.2323 38.7793 60.0338C38.7887 59.8365 38.7931 59.7139 38.792 59.6672C38.7916 59.6441 38.7904 59.5569 38.7872 59.4053C38.7847 59.2539 38.7872 59.0797 38.7977 58.8811C38.8066 58.6837 38.8099 58.4853 38.8066 58.2875C38.8031 58.0901 38.8002 57.9209 38.7977 57.7812C38.766 56.0126 38.701 54.2502 38.598 52.4938C38.4945 50.7379 38.3946 48.9762 38.2992 47.2084C38.298 47.1387 38.2797 46.9877 38.2457 46.7554C38.2112 46.5236 38.1928 46.361 38.1905 46.2678C38.1564 46.059 38.0765 45.8162 37.9509 45.5397C37.8243 45.2628 37.6607 44.9997 37.4583 44.7482C37.2547 44.4977 37.0151 44.2893 36.7369 44.1238C36.4583 43.9578 36.151 43.8821 35.8181 43.8956C35.6516 43.9025 35.4844 43.9098 35.3178 43.917C35.08 44.0449 34.9422 44.1567 34.902 44.2512C34.861 44.347 34.6757 44.4259 34.347 44.49C34.3503 44.5597 34.3349 44.6886 34.3003 44.877C34.2662 45.0659 34.2325 45.2649 34.1996 45.477C34.1667 45.689 34.1257 45.8834 34.0765 46.061C34.027 46.2388 33.9885 46.3404 33.9608 46.3648C33.8954 47.2552 33.8159 48.1111 33.7232 48.9331C33.6301 49.7557 33.5877 50.633 33.5937 51.5653C33.657 52.5063 33.7197 53.447 33.7828 54.3878C33.7353 54.5079 33.7203 54.6951 33.7378 54.9508C33.7646 55.3461 33.8177 55.7273 33.8969 56.095C33.9758 56.4633 34.054 56.8433 34.134 57.2347L34.1473 57.4441Z" fill="#F4F1E9"/>
<path id="Vector_5" d="M50.6798 67.372C50.6829 67.3493 50.6823 67.2437 50.6798 67.0559C50.6765 66.8683 50.6769 66.7626 50.6794 66.7397C50.8597 66.0102 50.9657 65.2663 50.9907 64.5074C51.0146 63.7494 51.0804 63.0011 51.1901 62.2631C51.3889 60.7393 51.5376 59.1162 51.6248 57.3921C51.7106 55.6687 51.8364 54.0312 52.0085 52.4806C52.0135 52.4344 52.0277 52.307 52.0512 52.099C52.0747 51.891 52.1064 51.6657 52.1478 51.4244C52.1888 51.1829 52.2278 50.9591 52.2663 50.7522C52.3036 50.5454 52.3252 50.4193 52.33 50.3726C52.3664 50.0487 52.4133 49.6325 52.4701 49.1232C52.527 48.6146 52.583 48.1164 52.6377 47.6311C52.6923 47.1452 52.7458 46.7277 52.8538 46.0372C52.8259 45.8816 52.8821 46.1923 52.8538 46.0372C52.7564 46.0969 52.5971 46.3084 52.5001 46.3684C52.4027 46.4282 52.092 46.9389 51.7502 47.1854C51.4091 47.4321 51.0377 47.6946 50.6394 47.9738C50.2407 48.2532 49.8762 48.5203 49.5449 48.7737C49.2139 49.0266 49.0026 49.1859 48.9095 49.2488C48.658 49.4632 48.3732 49.5586 48.0532 49.5369C47.7336 49.492 47.4758 49.3181 47.2745 49.0139C47.0742 48.7106 46.9031 48.473 46.7659 48.3019C46.6278 48.131 46.4552 47.912 46.247 47.6442C46.0386 47.3771 45.8279 47.1164 45.616 46.8618C45.4036 46.6076 45.2652 46.2991 45.1084 46.1054C44.9512 45.9131 44.8307 45.7265 44.8015 45.702C44.7724 45.6772 44.7357 45.4619 44.7232 45.6085C44.6976 45.9106 44.6997 45.7846 44.6955 45.9004C44.6891 46.0636 44.672 46.3076 44.6456 46.6324C44.6181 46.9582 44.6041 47.1439 44.6025 47.1901C44.5209 49.3772 44.4417 51.6688 44.3662 54.065C44.2893 56.4617 44.1944 58.7648 44.0864 60.9735C44.0299 61.7871 44.0181 62.6366 44.0474 63.5228C44.0761 64.4096 44.0607 65.2592 44.0052 66.0722C43.997 66.2816 43.9756 66.5136 43.9419 66.7684C43.9077 67.0234 43.7347 67.1452 43.4237 67.135C42.9081 67.0842 42.3924 67.0372 41.8759 66.9949C41.7797 66.9937 41.6837 66.9687 41.5888 66.9214C41.4926 66.874 41.4328 66.8034 41.4102 66.7099C41.4106 66.6872 41.4226 66.6576 41.4474 66.6231C41.4709 66.5885 41.4839 66.5594 41.4841 66.5361C41.4841 66.5129 41.4845 66.4894 41.4849 66.4663C41.4849 66.4428 41.4853 66.4197 41.4853 66.3961C41.4861 66.3035 41.4832 66.047 41.4755 65.6279C41.467 65.2092 41.4662 64.7608 41.4707 64.2836C41.4759 63.8066 41.4801 63.358 41.4839 62.9393C41.4886 62.5204 41.4911 62.2645 41.492 62.1715C41.4514 61.1232 41.4489 59.9708 41.4878 58.714C41.5259 57.4573 41.5519 56.3056 41.5621 55.2577C41.5444 54.3035 41.5195 53.36 41.4855 52.4285C41.4522 51.4973 41.4664 50.5662 41.533 49.6356C41.533 49.6121 41.5334 49.5892 41.5338 49.5659C41.5338 49.5428 41.5407 49.4786 41.5569 49.3737C41.5723 49.2694 41.5805 49.153 41.5823 49.025C41.5832 48.8971 41.5913 48.7806 41.6075 48.6758C41.6223 48.5711 41.6304 48.5078 41.6311 48.4839C41.6311 48.4608 41.6315 48.4372 41.6315 48.4141C41.6977 47.6001 41.7152 46.7681 41.6798 45.9177C41.644 45.0682 41.5986 44.2469 41.5453 43.4547C41.5457 43.4085 41.5542 43.2748 41.5717 43.0535C41.5888 42.8326 41.5984 42.6992 41.5984 42.6521C41.6906 42.618 41.7835 42.5842 41.8757 42.5501C42.3512 42.5557 42.8265 42.5638 43.3016 42.5753C43.3327 42.553 43.4332 42.5322 43.6029 42.5128C43.7722 42.4941 43.9489 42.4872 44.1336 42.4926C44.3175 42.4987 44.4863 42.5043 44.6402 42.5093C44.7934 42.5149 44.9002 42.5187 44.9622 42.5214C45.0532 42.5482 45.1276 42.6092 45.1852 42.7046C45.2421 42.8004 45.2845 42.8507 45.3135 42.8986C45.3416 42.9465 45.6125 43.6046 45.7428 43.7618C45.8735 43.919 46.5402 45.5235 47.2145 46.2603C47.4078 46.4712 47.5004 46.5845 47.6972 46.7833C47.8077 46.9072 47.9137 47.0144 48.0961 47.1897C48.2778 47.3654 48.3534 47.3209 48.3834 47.323L48.4129 47.3251C48.8356 47.0396 49.1033 46.9788 49.532 46.699C49.5934 46.6807 49.6736 46.6288 49.7708 46.5431C49.8687 46.4585 49.9345 46.394 49.9682 46.3497C51.1335 45.6193 52.5655 43.9538 53.7764 43.2598C53.8759 43.2009 54.0021 43.1803 54.1559 43.1982C54.6142 43.2519 54.8644 43.4832 54.9046 43.8869C54.7605 44.5263 54.681 45.1498 54.6639 45.7573C54.6464 46.3655 54.595 46.9926 54.5113 47.6388C54.4488 47.8897 54.3997 48.212 54.3639 48.6063C54.3275 49.0006 54.2929 49.3252 54.2604 49.579C53.9569 51.4656 53.7533 53.4048 53.6319 55.3962C53.5101 57.3875 53.29 59.3258 52.9892 61.2119C52.869 61.9243 52.7889 62.6361 52.746 63.3463C52.7027 64.0571 52.6198 64.7685 52.5009 65.4803C52.4643 65.7572 52.4366 66.1059 52.4172 66.5265C52.3981 66.946 52.3698 67.2947 52.3325 67.5716C52.3267 67.6183 52.2817 67.6353 52.198 67.6245C52.1139 67.6139 52.0123 67.601 51.8928 67.586C51.7493 67.5681 51.6057 67.5506 51.462 67.5331C51.2784 67.5462 51.0945 67.56 50.9113 67.5741C50.8339 67.5065 50.7575 67.439 50.6798 67.372Z" fill="#F4F1E9"/>
<path id="Vector_6" d="M57.1566 40.7668C57.2031 40.4448 57.3234 40.1083 57.5189 39.7596C57.7146 39.4117 58.1146 39.2793 58.7158 39.3703C59.1903 39.4425 59.562 39.602 59.8291 39.8449C60.0956 40.089 60.1966 40.3948 60.1337 40.762C60.0829 41.0608 59.8512 41.2875 59.4423 41.4458C59.0333 41.6042 58.6282 41.6531 58.2255 41.5927C57.9145 41.5461 57.6517 41.4547 57.4338 41.3175C57.216 41.1805 57.1233 40.9977 57.1566 40.7668ZM53.9273 64.651C54.0936 63.5224 54.2764 62.4075 54.4782 61.3072C54.6807 60.2068 54.8656 59.0928 55.0336 57.9642C55.0474 57.8722 55.0738 57.6933 55.1132 57.4283C55.1525 57.1637 55.1867 56.8866 55.2162 56.5963C55.245 56.3067 55.2787 56.0348 55.3162 55.7815C55.3536 55.5281 55.3807 55.3438 55.3978 55.2285C55.4044 55.1829 55.4105 55.0482 55.4157 54.8252C55.4205 54.6026 55.4282 54.4569 55.438 54.3876C55.6368 53.0399 55.835 51.6921 56.0336 50.3444C56.125 49.7221 56.261 49.0953 56.4448 48.4624C56.6276 47.8305 56.7375 47.1988 56.7708 46.5686C56.7748 46.5459 56.7879 46.4537 56.8125 46.2921C56.8364 46.1314 56.8629 45.9528 56.892 45.7566C56.9212 45.5614 56.9489 45.3767 56.9745 45.2041C57.0001 45.0311 57.0026 44.908 56.9828 44.8343C56.9861 44.8117 56.979 44.7579 56.9609 44.6724C56.9426 44.5878 56.9349 44.5339 56.9387 44.5104C56.9451 44.4648 56.9541 44.4065 56.9638 44.3378C56.9743 44.2687 56.9994 44.2018 57.0398 44.1369C57.0536 44.0451 57.0821 43.9549 57.1267 43.8669C57.1698 43.7796 57.3009 43.739 57.5177 43.7476C57.7333 43.7561 57.9794 43.7805 58.253 43.8225C58.527 43.8644 58.791 43.9183 59.0456 43.9822C59.2994 44.0467 59.4731 44.0869 59.5636 44.1023C59.685 44.1221 59.7362 44.19 59.7162 44.3045C59.6967 44.4198 59.6517 44.5416 59.583 44.672C59.5141 44.8023 59.4527 44.9334 59.3996 45.0663C59.3459 45.1987 59.3427 45.3047 59.3914 45.3838C59.3675 45.5214 59.33 45.7454 59.2765 46.055C59.2236 46.3648 59.1676 46.6921 59.1087 47.0366C59.0498 47.3806 58.9938 47.7079 58.9407 48.0176C58.8872 48.3274 58.8497 48.5515 58.8262 48.6891C58.8181 48.7355 58.795 48.9141 58.7564 49.2266C58.7171 49.5387 58.6863 49.7638 58.6628 49.9014C58.2295 52.4268 57.7134 54.9204 57.1321 57.385C56.5506 59.8506 56.0582 62.3483 55.6382 64.875C55.5693 65.2887 55.5185 65.6289 55.4869 65.8945C55.4548 66.1608 55.4292 66.5043 55.4082 66.9257C55.4086 67.0675 55.4151 67.2162 55.4261 67.3708C55.4363 67.5266 55.4305 67.6725 55.4069 67.8108C55.3876 67.9257 55.348 68.0133 55.2891 68.0743C55.1694 68.0552 54.9412 68.03 54.6039 68.0004C54.266 67.9719 54.0382 67.9496 53.9189 67.9321C53.9071 67.9305 53.895 67.9286 53.8831 67.9269C53.7634 67.909 53.6828 67.8389 53.6404 67.715C53.5977 67.5911 53.5579 67.4912 53.52 67.4154C53.6556 66.4939 53.7917 65.5727 53.9273 64.651Z" fill="#F4F1E9"/>
<path id="Vector_7" d="M56.79 68.0841C56.8156 67.9464 56.8342 67.7491 56.8444 67.4903C56.8552 67.2321 56.8731 67.0341 56.8983 66.8967C56.9235 66.7593 56.9518 66.6404 56.9828 66.5395C57.0136 66.4383 57.0684 66.3125 57.1473 66.161C57.2195 65.7712 57.292 65.3819 57.3645 64.993C57.4786 64.3742 57.596 63.7095 57.7153 62.997C57.8335 62.2852 57.9487 61.5605 58.0588 60.8228C58.1681 60.0852 58.2814 59.3601 58.3998 58.6476C58.5166 57.9352 58.6328 57.2696 58.7463 56.6512C58.799 56.365 58.8518 56.0787 58.9045 55.7924C58.9395 55.7514 58.9711 55.6979 58.9978 55.6313C59.0238 55.5651 59.0392 55.5209 59.043 55.4974C59.1591 55.0215 59.2593 54.5957 59.3438 54.2206C59.4275 53.845 59.5037 53.4746 59.572 53.1077C59.6397 52.7419 59.71 52.3639 59.7823 51.9745C59.8545 51.5854 59.933 51.162 60.0186 50.7039C60.0267 50.6581 60.055 50.5451 60.1037 50.3642C60.1516 50.1834 60.202 49.9913 60.2555 49.7883C60.308 49.5845 60.3575 49.3981 60.4046 49.2289C60.4508 49.06 60.4789 48.9528 60.4875 48.9072C60.5601 48.5175 60.6328 48.1286 60.7058 47.7392C61.126 45.4129 61.5447 43.0861 61.9628 40.7593C61.9076 40.5363 61.9084 40.2704 61.9648 39.9613C62.0221 39.6523 62.07 39.3946 62.1081 39.1882C62.1674 38.8678 62.2569 38.6946 62.3773 38.669C62.497 38.6436 62.7666 38.6565 63.1859 38.7113C63.2492 38.7231 63.4104 38.7414 63.6706 38.7675C63.9292 38.7937 64.0905 38.8129 64.1547 38.8256L64.2026 38.8349C64.4568 38.8849 64.6614 39.0209 64.8136 39.2417C64.7945 39.8082 64.7104 40.4033 64.5632 41.027C64.4162 41.651 64.2538 42.2714 64.0768 42.8893C63.8998 43.5072 63.7302 44.1264 63.5701 44.7473C63.4093 45.3687 63.2732 45.9527 63.1595 46.5C62.8924 47.789 62.6248 49.0773 62.3579 50.366C62.3438 50.4343 62.3223 50.6084 62.2946 50.8878C62.2661 51.1672 62.2447 51.3412 62.2301 51.4097C62.1947 51.4382 62.1593 51.4668 62.1237 51.4951C61.5749 54.141 61.0265 56.787 60.4777 59.4325C60.3546 60.0261 60.1968 60.7541 60.0046 61.6181C59.8114 62.4826 59.6544 63.2113 59.532 63.8044C59.4042 64.4202 59.2632 65.0394 59.1094 65.6615C58.9547 66.2846 58.8148 66.9034 58.688 67.5194C58.632 67.793 58.5751 68.0668 58.5187 68.3408C58.4879 68.3697 58.4567 68.3993 58.4265 68.4292C58.1885 68.3818 57.9507 68.3356 57.7128 68.29C57.6291 68.4642 57.52 68.5202 57.384 68.4592C57.2483 68.398 57.1246 68.3343 57.0145 68.2664C56.9402 68.2059 56.8648 68.1449 56.79 68.0841Z" fill="#F4F1E9"/>
<path id="Vector_8" d="M59.9214 68.704C59.9518 68.5677 59.977 68.3707 59.9972 68.1128C60.0172 67.855 60.0415 67.6576 60.0723 67.5213C60.1021 67.3845 60.1348 67.2667 60.1698 67.1667C60.2043 67.0672 60.2632 66.9433 60.3476 66.794C60.434 66.4078 60.5198 66.021 60.6066 65.6348C60.7434 65.0209 60.8843 64.3602 61.0292 63.6526C61.1737 62.9454 61.3138 62.2248 61.4502 61.4915C61.5866 60.7583 61.7254 60.0377 61.8691 59.3298C62.0119 58.6222 62.1516 57.9607 62.2874 57.3466C62.3507 57.0624 62.4131 56.7778 62.4762 56.4936C62.5126 56.4542 62.5459 56.4014 62.5749 56.3364C62.603 56.2706 62.6201 56.2271 62.6253 56.2044C62.7585 55.7322 62.8741 55.3104 62.9717 54.9382C63.0687 54.5659 63.1576 54.1985 63.2397 53.8345C63.3204 53.4708 63.4044 53.0956 63.4905 52.7088C63.577 52.3226 63.6704 51.9021 63.7722 51.4472C63.7824 51.4018 63.8141 51.29 63.8697 51.1107C63.9244 50.9317 63.9817 50.7416 64.0425 50.5402C64.1018 50.3385 64.1582 50.154 64.2117 49.9869C64.2638 49.8195 64.2954 49.7135 64.3061 49.6677C64.3925 49.2811 64.4791 48.8947 64.5659 48.5085C65.0693 46.1981 65.5713 43.8876 66.0726 41.5766C66.0252 41.3518 66.035 41.0859 66.1034 40.7786C66.1717 40.4717 66.229 40.2165 66.2744 40.0116C66.3454 39.6933 66.4405 39.5232 66.5625 39.5017C66.6831 39.4805 66.9527 39.5032 67.3701 39.5723C67.433 39.5865 67.5937 39.6108 67.8532 39.6458C68.1113 39.6814 68.2725 39.7066 68.336 39.721C68.3518 39.7249 68.3676 39.7283 68.3834 39.7322C68.6368 39.7911 68.8361 39.9342 68.981 40.1605C68.9416 40.7257 68.8361 41.3176 68.6668 41.936C68.4967 42.5543 68.3124 43.1687 68.1134 43.7797C67.914 44.3912 67.7224 45.0046 67.5402 45.6194C67.357 46.2348 67.1998 46.8133 67.0668 47.3563C66.7526 48.6353 66.4399 49.9136 66.1261 51.1923C66.1091 51.2604 66.0816 51.4334 66.0437 51.7116C66.0048 51.9897 65.9783 52.1627 65.9613 52.2308C65.9248 52.2583 65.8882 52.2851 65.8515 52.3124C65.208 54.9373 64.5644 57.5625 63.9207 60.1874C63.7766 60.7762 63.5926 61.4984 63.369 62.3551C63.1456 63.2123 62.9626 63.9349 62.8185 64.5233C62.6694 65.1343 62.5053 65.7483 62.3292 66.3648C62.1522 66.9818 61.9903 67.5954 61.8412 68.2064C61.7754 68.4783 61.7092 68.75 61.6426 69.0217C61.6105 69.0498 61.5789 69.0782 61.5472 69.1067C61.3109 69.0513 61.0742 68.9965 60.8379 68.943C60.7475 69.1136 60.6361 69.1662 60.5023 69.1002C60.3686 69.0344 60.2476 68.9662 60.14 68.8947C60.0671 68.8308 59.9945 68.7671 59.9214 68.704Z" fill="#F4F1E9"/>
<path id="Vector_9" d="M65.1043 63.2156C65.0268 63.0999 65.0283 62.9922 65.109 62.8923C65.1197 62.7503 65.1492 62.5119 65.1969 62.1753C65.2448 61.8391 65.2916 61.478 65.3374 61.0929C65.383 60.7079 65.4293 60.3471 65.4759 60.0101C65.5215 59.6736 65.5623 59.4369 65.5973 59.3016L66.0818 57.4413C66.0638 57.4007 66.0455 57.3602 66.0274 57.3196C66.1398 57.3243 66.2104 57.2756 66.2373 57.1738C66.2635 57.0726 66.2856 56.9879 66.3031 56.9204C66.3712 56.7695 66.4692 56.5059 66.597 56.1295C66.7241 55.7535 66.8635 55.3619 67.0145 54.9557C67.1659 54.5493 67.312 54.1602 67.4555 53.7875C67.5987 53.4159 67.6913 53.1509 67.7332 52.9928C67.9566 52.7139 68.1263 52.3903 68.2399 52.0229C68.3536 51.655 68.495 51.325 68.6659 51.0318C68.936 50.5963 69.2133 50.1695 69.4998 49.7506C69.7844 49.3324 70.106 48.9301 70.4669 48.5443C70.6463 48.352 70.9126 48.1644 71.2663 47.9841C71.6197 47.804 72 47.6501 72.4069 47.5238C72.8128 47.3976 73.2193 47.3093 73.6234 47.2583C74.0273 47.2083 74.3789 47.229 74.6764 47.3195C75.0922 47.4465 75.4574 47.555 75.7724 47.6418C76.0878 47.7295 76.3858 47.8923 76.6664 48.1306C77.1682 48.5883 77.5161 49.0257 77.7151 49.4375C77.9133 49.8501 78.0245 50.2707 78.0501 50.6989C78.0749 51.127 78.0309 51.5625 77.9198 52.0054C77.8084 52.448 77.6926 52.9206 77.5746 53.4223C77.5032 53.6197 77.3843 53.9676 77.2198 54.4658C77.0545 54.964 76.8706 55.4922 76.6677 56.0516C76.4647 56.6106 76.2823 57.1336 76.1207 57.6204C75.9592 58.108 75.8421 58.4494 75.7703 58.6468C75.5894 59.2262 75.4237 59.8044 75.2727 60.3815C75.1212 60.9584 74.9406 61.5324 74.7327 62.1016C74.6839 62.2327 74.6015 62.4387 74.4853 62.7189C74.3673 62.9989 74.3015 63.1613 74.2856 63.2048C74.2373 63.336 74.1514 63.5719 74.0275 63.911C73.9032 64.2512 73.7647 64.6101 73.6125 64.9886C73.4595 65.3675 73.3134 65.7304 73.1732 66.0767C73.0327 66.4233 72.939 66.6617 72.8918 66.7933C72.6746 67.2361 72.4302 67.6816 72.1595 68.1303C71.8886 68.579 71.5813 68.9841 71.2391 69.347C70.8959 69.7097 70.5087 70.0209 70.0779 70.2824C69.6468 70.5435 69.1587 70.72 68.6122 70.8135C68.5042 70.8285 68.3174 70.8477 68.053 70.8747C67.7875 70.9012 67.6137 70.9268 67.53 70.9495C67.4996 70.9645 67.4496 70.9615 67.3799 70.9397C67.3335 70.9255 67.2833 70.9226 67.23 70.9303C67.1833 70.9164 67.1126 70.8581 67.0172 70.7563C66.921 70.6542 66.8536 70.5853 66.8138 70.5491C66.6083 70.3907 66.433 70.2535 66.2893 70.139C66.1455 70.024 66.022 69.9039 65.9194 69.7771C65.8161 69.651 65.7176 69.5077 65.6237 69.348C65.5296 69.1885 65.4315 68.9733 65.3297 68.7032C65.205 68.3302 65.1344 67.961 65.1199 67.5948C65.1057 67.2292 65.0447 66.8628 64.936 66.4962C64.9997 65.4034 65.0558 64.3103 65.1043 63.2156ZM68.566 61.1882C68.5527 61.2332 68.5241 61.3523 68.4808 61.5455C68.4371 61.7393 68.3882 61.9496 68.3351 62.1765C68.2808 62.4039 68.227 62.6312 68.1735 62.8575C68.1192 63.0849 68.0761 63.2542 68.0424 63.3662C68.029 63.4109 68.0184 63.4925 68.0103 63.6112C68.0022 63.7305 67.9916 63.8121 67.9782 63.8565C67.8496 64.7419 67.7201 65.5722 67.5922 66.3477C67.4627 67.1243 67.4217 67.9558 67.458 68.8434C67.4746 68.8727 67.4802 68.8987 67.4729 68.9206C67.4592 68.9656 67.4644 68.9912 67.4884 68.9985C67.6139 69.2189 67.7392 69.4398 67.8631 69.6607C67.8793 69.6903 67.9233 69.7159 67.9939 69.7376C68.0649 69.7598 68.1119 69.7744 68.1352 69.7817C68.4182 69.8696 68.7151 69.8117 69.0317 69.607C69.3476 69.4026 69.6549 69.1348 69.9526 68.8028C70.2505 68.4717 70.5149 68.1295 70.745 67.7755C70.9736 67.422 71.136 67.1503 71.2287 66.9602C71.2988 66.8357 71.3846 66.6683 71.486 66.456C71.5863 66.2445 71.6898 66.0265 71.7954 65.8039C71.9001 65.5807 71.9917 65.3777 72.0698 65.195C72.1476 65.0126 72.1941 64.8989 72.2095 64.8543C72.2172 64.8325 72.2459 64.75 72.2957 64.6066C72.3456 64.4638 72.4089 64.301 72.4876 64.1177C72.5651 63.9354 72.6373 63.7503 72.7031 63.5631C72.7681 63.3764 72.8245 63.2165 72.8703 63.0841C73.4549 61.4114 74.0056 59.7334 74.5188 58.0476C75.0308 56.3627 75.548 54.6734 76.0718 52.9799C76.0949 52.9137 76.1301 52.7659 76.1778 52.5356C76.2261 52.3062 76.2648 52.1471 76.2956 52.0587C76.3354 51.8507 76.3439 51.5954 76.32 51.2929C76.296 50.99 76.2313 50.6865 76.1259 50.3814C76.0199 50.0773 75.8636 49.7995 75.6566 49.5495C75.4491 49.299 75.1836 49.1235 74.8619 49.023C74.7008 48.9724 74.5401 48.9226 74.3789 48.8733C74.1089 48.9126 73.9388 48.9707 73.8674 49.0459C73.7951 49.1219 73.5923 49.1331 73.2573 49.0819C73.2372 49.1489 73.1774 49.2651 73.0791 49.4302C72.9804 49.5959 72.8791 49.7723 72.7743 49.9601C72.6696 50.1476 72.5628 50.3169 72.4547 50.4672C72.3456 50.6171 72.2736 50.6998 72.2388 50.7133C71.8674 51.5278 71.4945 52.3052 71.1206 53.0463C70.7467 53.7873 70.4017 54.598 70.0836 55.4762C69.816 56.3818 69.5489 57.2873 69.2814 58.1923C69.1945 58.2893 69.1156 58.4607 69.0434 58.7063C68.9314 59.0865 68.8489 59.4631 68.7965 59.8352C68.743 60.2083 68.6861 60.592 68.6255 60.9865C68.6062 61.0542 68.586 61.1214 68.566 61.1882Z" fill="#F4F1E9"/>
<path id="Vector_10" d="M46.4543 32.284C46.4543 32.284 44.4527 27.0912 44.5437 26.4643C44.6347 25.8378 45.7264 24.0469 47 24.0469C48.2742 24.0469 55.6436 21.3612 57.0993 19.9286C58.5549 18.4962 60.5569 16.5267 59.9202 15.8998C59.2831 15.273 54.7338 16.8848 52.8233 17.601C50.926 18.3124 45.7092 21.3191 43.9434 24.4296C43.9316 24.4514 43.8466 24.695 43.7477 24.4304C43.2888 23.2031 41.9959 19.6804 41.9959 18.9441C41.9959 18.0488 43.9976 17.1532 44.7258 16.8846C45.4535 16.6162 51.6403 11.5129 49.002 1.93326C49.002 1.93326 49.093 -1.73785 46.0902 1.0376C43.0877 3.81347 39.7214 9.99083 40.4494 16.7055C40.4494 16.7055 40.7032 18.496 40.3491 18.496C39.9945 18.496 40.0855 14.736 37.3556 13.751C34.6263 12.7661 32.4425 10.7068 31.988 11.244C31.5333 11.7815 35.4456 18.9439 39.5392 19.9284C39.5392 19.9284 41.3593 22.9726 41.5412 24.226C41.7234 25.4797 40.2668 24.4052 35.8091 22.4355C31.3507 20.466 24.8003 16.2946 19.3411 16.142C13.8819 15.9896 26.6198 25.6588 33.4433 25.6588C40.2668 25.6588 41.45 24.7631 43.9974 30.9409C43.9974 30.9409 44.8166 32.8209 46.4543 32.284Z" fill="#F4F1E9"/>
</g>
</svg>
